<?xml version="1.0" encoding="UTF-8"?>
<svg xmlns="http://www.w3.org/2000/svg" width="1600" height="900" viewBox="0 0 1600 900" fill="none">
  <defs><clipPath id="pool"><path d="M300 360h520v150h420a36 36 0 0 1 36 36v190a36 36 0 0 1-36 36h-940a36 36 0 0 1-36-36v-340a36 36 0 0 1 36-36z"/></clipPath></defs>
  <g clip-path="url(#pool)"><circle cx="460" cy="500" r="20" fill="#2ad9c3" fill-opacity="0.35"/>
        <circle cx="460" cy="500" r="5" fill="#2ad9c3"/><circle cx="680" cy="500" r="20" fill="#f0abfc" fill-opacity="0.35"/>
        <circle cx="680" cy="500" r="5" fill="#f0abfc"/><circle cx="980" cy="640" r="20" fill="#2ad9c3" fill-opacity="0.35"/>
        <circle cx="980" cy="640" r="5" fill="#2ad9c3"/><circle cx="1160" cy="640" r="20" fill="#f0abfc" fill-opacity="0.35"/>
        <circle cx="1160" cy="640" r="5" fill="#f0abfc"/><circle cx="520" cy="680" r="20" fill="#2ad9c3" fill-opacity="0.35"/>
        <circle cx="520" cy="680" r="5" fill="#2ad9c3"/></g></svg>